# xmcd
#
# Track frame offsets:
# 150
# 19190
# 40987
# 58655
# 74715
# 92257
# 111965
# 127850
# 147765
# 164730
#
# Disc length: 2447 seconds
#
# Revision: 2
# Processed by: cddbd v1.5.2PL0 Copyright (c) Steve Scherf et al.
# Submitted via: plextools 2.35
#
DISCID=8b098d0a
DTITLE=Aylin Alaz - Kokun Üzerimde
DYEAR=2005
DGENRE=
TTITLE0=Aylin Alaz - Kizin yine asik anne
TTITLE1=Aylin Alaz - Bitanenim
TTITLE2=Aylin Alaz - Bir haber yolla
TTITLE3=Aylin Alaz - Anahtar
TTITLE4=Aylin Alaz - Zirdeliyim
TTITLE5=Aylin Alaz - Sigmaksizdik
TTITLE6=Aylin Alaz - Hayatimdan cikar misin
TTITLE7=Aylin Alaz - Kokun üzerimde
TTITLE8=Aylin Alaz - Hasret kuslari
TTITLE9=Aylin Alaz - Gönlüm tatilde
EXTD=
EXTT0=
EXTT1=
EXTT2=
EXTT3=
EXTT4=
EXTT5=
EXTT6=
EXTT7=
EXTT8=
EXTT9=
PLAYORDER=
